<svg width="60" height="60" viewBox="0 0 60 60" fill="none" xmlns="http://www.w3.org/2000/svg">
<circle cx="30" cy="30" r="30" fill="#D0B6F1" fill-opacity="0.7"/>
<path d="M19 41H41" stroke="black" stroke-width="2" stroke-linecap="round" stroke-linejoin="round"/>
<path d="M26 41V30.5H24.5C22.5109 30.5 20.6032 29.7098 19.1967 28.3033C17.7902 26.8968 17 24.9891 17 23V23C17.0033 22.338 17.2677 21.704 17.7359 21.2359C18.204 20.7677 18.838 20.5033 19.5 20.5C20.162 20.5033 20.796 20.7677 21.2641 21.2359C21.7323 21.704 21.9967 22.338 22 23C22.0033 23.662 22.2677 24.296 22.7359 24.7641C23.204 25.2323 23.838 25.4967 24.5 25.5H26V21C26 19.9391 26.4214 18.9217 27.1716 18.1716C27.9217 17.4214 28.9391 17 30 17V17C31.0609 17 32.0783 17.4214 32.8284 18.1716C33.5786 18.9217 34 19.9391 34 21V30.5H35.5C36.162 30.4967 36.796 30.2323 37.2641 29.7641C37.7323 29.296 37.9967 28.662 38 28V28C38.0033 27.338 38.2677 26.704 38.7359 26.2359C39.204 25.7677 39.838 25.5033 40.5 25.5C41.162 25.5033 41.796 25.7677 42.2641 26.2359C42.7323 26.704 42.9967 27.338 43 28V28C43 29.9891 42.2098 31.8968 40.8033 33.3033C39.3968 34.7098 37.4891 35.5 35.5 35.5H34V41" stroke="black" stroke-width="2" stroke-linecap="round" stroke-linejoin="round"/>
</svg>
