<svg width="60" height="60" viewBox="0 0 60 60" fill="none" xmlns="http://www.w3.org/2000/svg">
<circle cx="30" cy="30" r="30" fill="#F8B8E2" fill-opacity="0.7"/>
<path d="M41.0875 33.075C39.1242 33.6256 37.0497 33.6436 35.077 33.1273C33.1044 32.611 31.3048 31.5789 29.863 30.137C28.4211 28.6952 27.389 26.8956 26.8727 24.9229C26.3564 22.9503 26.3744 20.8758 26.925 18.9125C24.9893 19.4513 23.2286 20.4878 21.8182 21.9188C20.4078 23.3498 19.3969 25.1254 18.8862 27.0687C18.3756 29.0119 18.383 31.0551 18.9077 32.9946C19.4324 34.9341 20.4562 36.7023 21.8769 38.1231C23.2977 39.5438 25.0659 40.5676 27.0054 41.0923C28.9449 41.617 30.9881 41.6244 32.9313 41.1138C34.8746 40.6031 36.6502 39.5922 38.0812 38.1818C39.5122 36.7714 40.5487 35.0107 41.0875 33.075V33.075Z" stroke="black" stroke-width="2" stroke-linecap="round" stroke-linejoin="round"/>
</svg>
