<svg width="60" height="60" viewBox="0 0 60 60" fill="none" xmlns="http://www.w3.org/2000/svg">
<circle cx="30" cy="30" r="30" fill="#BBF4BE"/>
<path d="M28.0625 36.4C27.4084 37.1648 26.5724 37.7527 25.6315 38.1097C24.6907 38.4667 23.6751 38.5814 22.6783 38.4431C21.6815 38.3048 20.7355 37.918 19.9274 37.3183C19.1193 36.7186 18.4749 35.9252 18.0537 35.0113C17.6325 34.0973 17.448 33.0921 17.517 32.0882C17.5861 31.0842 17.9066 30.1137 18.449 29.2661C18.9914 28.4184 19.7383 27.7208 20.621 27.2374C21.5036 26.7541 22.4937 26.5005 23.5 26.5C23.9712 26.5025 24.4407 26.557 24.9 26.6625V26.6625C24.307 25.7146 23.9949 24.6181 24 23.5C24 21.9087 24.6321 20.3826 25.7574 19.2574C26.8826 18.1321 28.4087 17.5 30 17.5C31.5913 17.5 33.1174 18.1321 34.2426 19.2574C35.3679 20.3826 36 21.9087 36 23.5C36.0051 24.6181 35.693 25.7146 35.1 26.6625V26.6625C35.5593 26.557 36.0288 26.5025 36.5 26.5C37.5063 26.5005 38.4964 26.7541 39.379 27.2374C40.2617 27.7208 41.0086 28.4184 41.551 29.2661C42.0934 30.1137 42.4139 31.0842 42.483 32.0882C42.552 33.0921 42.3675 34.0973 41.9463 35.0113C41.5251 35.9252 40.8808 36.7186 40.0726 37.3183C39.2645 37.918 38.3185 38.3048 37.3217 38.4431C36.3249 38.5814 35.3093 38.4667 34.3685 38.1097C33.4276 37.7527 32.5916 37.1648 31.9375 36.4L34 43H26L28.0625 36.4Z" stroke="black" stroke-width="2" stroke-linecap="round" stroke-linejoin="round"/>
</svg>
