<svg width="68" height="68" viewBox="0 0 68 68" fill="none" xmlns="http://www.w3.org/2000/svg">
<g filter="url(#filter0_d_328_373)">
<circle opacity="0.7" cx="34" cy="30" r="30" fill="#F48989"/>
<path d="M34 33.5C35.933 33.5 37.5 31.933 37.5 30C37.5 28.067 35.933 26.5 34 26.5C32.067 26.5 30.5 28.067 30.5 30C30.5 31.933 32.067 33.5 34 33.5Z" stroke="black" stroke-width="2" stroke-linecap="round" stroke-linejoin="round"/>
<path d="M32.375 26.9C31.4625 24.975 30.5 22.575 30.5 21C30.5 20.0717 30.8687 19.1815 31.5251 18.5251C32.1815 17.8687 33.0717 17.5 34 17.5C34.9283 17.5 35.8185 17.8687 36.4749 18.5251C37.1313 19.1815 37.5 20.0717 37.5 21C37.5 22.575 36.5375 24.975 35.625 26.9" stroke="black" stroke-width="2" stroke-linecap="round" stroke-linejoin="round"/>
<path d="M30.5 29.85C28.375 29.6875 25.8125 29.3125 24.45 28.525C23.701 28.035 23.1683 27.2767 22.9612 26.4059C22.7541 25.5352 22.8885 24.6182 23.3367 23.8435C23.7848 23.0688 24.5128 22.4952 25.3708 22.2407C26.2289 21.9861 27.1519 22.07 27.95 22.475C29.3125 23.25 30.9125 25.2875 32.125 27.05" stroke="black" stroke-width="2" stroke-linecap="round" stroke-linejoin="round"/>
<path d="M32.125 32.95C30.9125 34.7125 29.3125 36.75 27.95 37.525C27.5518 37.7855 27.1048 37.9621 26.6361 38.044C26.1674 38.1258 25.6869 38.1113 25.224 38.0012C24.7611 37.8911 24.3255 37.6878 23.9439 37.4037C23.5622 37.1196 23.2425 36.7606 23.0042 36.3488C22.766 35.937 22.6142 35.4809 22.5581 35.0084C22.5021 34.5359 22.543 34.0569 22.6783 33.6008C22.8136 33.1446 23.0405 32.7209 23.3451 32.3554C23.6498 31.9899 24.0257 31.6903 24.45 31.475C25.8125 30.6875 28.375 30.3125 30.5 30.15" stroke="black" stroke-width="2" stroke-linecap="round" stroke-linejoin="round"/>
<path d="M35.625 33.1C36.5375 35.025 37.5 37.425 37.5 39C37.5 39.9283 37.1313 40.8185 36.4749 41.4749C35.8185 42.1312 34.9283 42.5 34 42.5C33.0717 42.5 32.1815 42.1312 31.5251 41.4749C30.8687 40.8185 30.5 39.9283 30.5 39C30.5 37.425 31.4625 35.025 32.375 33.1" stroke="black" stroke-width="2" stroke-linecap="round" stroke-linejoin="round"/>
<path d="M37.5 30.15C39.625 30.3125 42.1875 30.6875 43.55 31.475C44.299 31.965 44.8317 32.7233 45.0388 33.5941C45.2459 34.4648 45.1115 35.3818 44.6633 36.1565C44.2152 36.9312 43.4872 37.5048 42.6292 37.7593C41.7711 38.0139 40.8481 37.93 40.05 37.525C38.6875 36.75 37.0875 34.7125 35.875 32.95" stroke="black" stroke-width="2" stroke-linecap="round" stroke-linejoin="round"/>
<path d="M35.875 27.05C37.0875 25.2875 38.6875 23.25 40.05 22.475C40.8481 22.07 41.7711 21.9861 42.6292 22.2407C43.4872 22.4952 44.2152 23.0688 44.6633 23.8435C45.1115 24.6182 45.2459 25.5352 45.0388 26.4059C44.8317 27.2767 44.299 28.035 43.55 28.525C42.1875 29.3125 39.625 29.6875 37.5 29.85" stroke="black" stroke-width="2" stroke-linecap="round" stroke-linejoin="round"/>
</g>
<defs>
<filter id="filter0_d_328_373" x="0" y="0" width="68" height="68" filterUnits="userSpaceOnUse" color-interpolation-filters="sRGB">
<feFlood flood-opacity="0" result="BackgroundImageFix"/>
<feColorMatrix in="SourceAlpha" type="matrix" values="0 0 0 0 0 0 0 0 0 0 0 0 0 0 0 0 0 0 127 0" result="hardAlpha"/>
<feOffset dy="4"/>
<feGaussianBlur stdDeviation="2"/>
<feComposite in2="hardAlpha" operator="out"/>
<feColorMatrix type="matrix" values="0 0 0 0 0 0 0 0 0 0 0 0 0 0 0 0 0 0 0.25 0"/>
<feBlend mode="normal" in2="BackgroundImageFix" result="effect1_dropShadow_328_373"/>
<feBlend mode="normal" in="SourceGraphic" in2="effect1_dropShadow_328_373" result="shape"/>
</filter>
</defs>
</svg>
