<svg width="20" height="20" viewBox="0 0 20 20" fill="none" xmlns="http://www.w3.org/2000/svg">
<g clip-path="url(#clip0_0_285)">
<path fill-rule="evenodd" clip-rule="evenodd" d="M10.0004 0.416748C7.62639 0.41798 5.33025 1.2588 3.52253 2.78885C1.71482 4.3189 0.513395 6.43842 0.133096 8.76841C-0.247203 11.0984 0.218415 13.4869 1.4467 15.5069C2.67499 17.5269 4.58584 19.0466 6.83758 19.7942C7.33436 19.8864 7.52147 19.5785 7.52147 19.3167C7.52147 19.055 7.51153 18.2959 7.50822 17.4661C4.72631 18.0671 4.13846 16.2922 4.13846 16.2922C3.68475 15.1396 3.02901 14.8367 3.02901 14.8367C2.12157 14.2209 3.0969 14.2324 3.0969 14.2324C4.10204 14.3032 4.63027 15.2582 4.63027 15.2582C5.52115 16.7779 6.97005 16.3383 7.53969 16.0814C7.6291 15.4376 7.88909 14.9997 8.17556 14.751C5.95333 14.5008 3.61851 13.6479 3.61851 9.83793C3.60473 8.84984 3.97349 7.89429 4.64848 7.16898C4.54582 6.91872 4.20304 5.90778 4.74618 4.53461C4.74618 4.53461 5.58573 4.26788 7.49664 5.55378C9.1357 5.1081 10.865 5.1081 12.5041 5.55378C14.4133 4.26788 15.2512 4.53461 15.2512 4.53461C15.796 5.90448 15.4533 6.91542 15.3506 7.16898C16.0277 7.89441 16.3972 8.85162 16.3822 9.84123C16.3822 13.6594 14.0424 14.5008 11.8169 14.7461C12.1746 15.0556 12.4942 15.6599 12.4942 16.5885C12.4942 17.9189 12.4826 18.9891 12.4826 19.3167C12.4826 19.5818 12.663 19.8914 13.1698 19.7942C15.4218 19.0465 17.3328 17.5265 18.5611 15.5062C19.7893 13.4859 20.2547 11.097 19.874 8.76679C19.4932 6.43658 18.2912 4.31704 16.4829 2.78725C14.6746 1.25746 12.3779 0.417199 10.0037 0.416748H10.0004Z" fill="black"/>
<path d="M3.78681 14.6933C3.76528 14.7427 3.6858 14.7575 3.62122 14.7229C3.55664 14.6883 3.50862 14.6241 3.5318 14.5731C3.55498 14.522 3.63281 14.5089 3.69739 14.5434C3.76197 14.578 3.81164 14.6439 3.78681 14.6933Z" fill="black"/>
<path d="M4.19285 15.1428C4.15856 15.16 4.11933 15.1648 4.08187 15.1563C4.04441 15.1479 4.01106 15.1268 3.98752 15.0967C3.92294 15.0275 3.90969 14.932 3.95937 14.8892C4.00904 14.8464 4.09847 14.8662 4.16305 14.9353C4.22763 15.0045 4.24253 15.1 4.19285 15.1428Z" fill="black"/>
<path d="M4.58673 15.7141C4.52546 15.7569 4.42113 15.7141 4.36318 15.6285C4.34715 15.6131 4.33441 15.5947 4.3257 15.5743C4.31699 15.5539 4.3125 15.532 4.3125 15.5099C4.3125 15.4878 4.31699 15.4659 4.3257 15.4455C4.33441 15.4251 4.34715 15.4067 4.36318 15.3914C4.42444 15.3502 4.52877 15.3914 4.58673 15.4753C4.64468 15.5593 4.64634 15.6713 4.58673 15.7141V15.7141Z" fill="black"/>
<path d="M5.12168 16.2674C5.06704 16.3283 4.95609 16.3118 4.86502 16.2295C4.77394 16.1472 4.75241 16.0352 4.80706 15.9759C4.8617 15.9167 4.97265 15.9331 5.06703 16.0138C5.16142 16.0945 5.17964 16.2081 5.12168 16.2674V16.2674Z" fill="black"/>
<path d="M5.87197 16.5901C5.84714 16.6675 5.73453 16.702 5.62193 16.6691C5.50933 16.6362 5.43481 16.544 5.45634 16.4649C5.47787 16.3859 5.59213 16.3497 5.70638 16.3859C5.82064 16.4221 5.8935 16.5094 5.87197 16.5901Z" fill="black"/>
<path d="M6.68962 16.6461C6.68962 16.7268 6.59689 16.796 6.47767 16.7976C6.35844 16.7993 6.26074 16.7334 6.26074 16.6527C6.26074 16.5721 6.35347 16.5029 6.47269 16.5013C6.59192 16.4996 6.68962 16.5638 6.68962 16.6461Z" fill="black"/>
<path d="M7.45166 16.5192C7.46656 16.5999 7.38377 16.6838 7.26454 16.7036C7.14532 16.7233 7.041 16.6756 7.02609 16.5966C7.01119 16.5175 7.0973 16.4319 7.21321 16.4105C7.32912 16.3891 7.43676 16.4385 7.45166 16.5192Z" fill="black"/>
</g>
<defs>
<clipPath id="clip0_0_285">
<rect width="20" height="20" fill="white"/>
</clipPath>
</defs>
</svg>
