<svg width="100" height="100" viewBox="0 0 100 100" fill="none" xmlns="http://www.w3.org/2000/svg">
<path d="M43 20L33 12L43 4L43 20Z" fill="black" stroke="black" stroke-width="2" stroke-linecap="round" stroke-linejoin="round"/>
<path d="M29 19L29 5" stroke="black" stroke-width="2" stroke-linecap="round" stroke-linejoin="round"/>
<path d="M16.2222 2L19.9999 5.77778L16.2222 9.55556" stroke="black" stroke-width="2" stroke-linecap="round" stroke-linejoin="round"/>
<path d="M3 11.4443V9.55537C3 8.55344 3.39801 7.59254 4.10649 6.88407C4.81496 6.1756 5.77585 5.77759 6.77778 5.77759H20" stroke="black" stroke-width="2" stroke-linecap="round" stroke-linejoin="round"/>
<path d="M6.77778 22.778L3 19.0002L6.77778 15.2224" stroke="black" stroke-width="2" stroke-linecap="round" stroke-linejoin="round"/>
<path d="M20 13.3333V15.2221C20 16.2241 19.602 17.185 18.8935 17.8934C18.185 18.6019 17.2242 18.9999 16.2222 18.9999H3" stroke="black" stroke-width="2" stroke-linecap="round" stroke-linejoin="round"/>
<path d="M53 4L63 12L53 20V4Z" fill="black" stroke="black" stroke-width="2" stroke-linecap="round" stroke-linejoin="round"/>
<path d="M29 30L43 37.5L29 45V30Z" fill="white" stroke="white" stroke-width="2" stroke-linecap="round" stroke-linejoin="round"/>
<path d="M67 5V19" stroke="black" stroke-width="2" stroke-linecap="round" stroke-linejoin="round"/>
<path d="M58 29V44" stroke="white" stroke-width="2" stroke-linecap="round" stroke-linejoin="round"/>
<path d="M63 29V44" stroke="white" stroke-width="2" stroke-linecap="round" stroke-linejoin="round"/>
<path d="M16.2222 26L19.9999 29.7778L16.2222 33.5556" stroke="black" stroke-width="2" stroke-linecap="round" stroke-linejoin="round"/>
<path d="M3 35.4443V33.5554C3 32.5534 3.39801 31.5925 4.10649 30.8841C4.81496 30.1756 5.77585 29.7776 6.77778 29.7776H20" stroke="black" stroke-width="2" stroke-linecap="round" stroke-linejoin="round"/>
<path d="M6.77778 46.778L3 43.0002L6.77778 39.2224" stroke="black" stroke-width="2" stroke-linecap="round" stroke-linejoin="round"/>
<path d="M20 37.3333V39.2221C20 40.2241 19.602 41.185 18.8935 41.8934C18.185 42.6019 17.2242 42.9999 16.2222 42.9999H3" stroke="black" stroke-width="2" stroke-linecap="round" stroke-linejoin="round"/>
<path d="M13.05 32.1389H9.8V33.7189H11.24V40.2889H13.05V32.1389Z" fill="black"/>
<path d="M17 67.9999L20 64.9999L17 61.9999" stroke="black" stroke-width="2" stroke-linecap="round" stroke-linejoin="round"/>
<path d="M17 52L20 55L17 58" stroke="black" stroke-width="2" stroke-linecap="round" stroke-linejoin="round"/>
<path d="M20 55H16C14.8744 55 13.8357 55.3719 13 55.9996M2 65H6C7.12561 65 8.16434 64.6281 9 64.0004" stroke="black" stroke-width="2" stroke-linecap="round" stroke-linejoin="round"/>
<path d="M2 55H6C8.76142 55 11 57.2386 11 60C11 62.7614 13.2386 65 16 65H20" stroke="black" stroke-width="2" stroke-linecap="round" stroke-linejoin="round"/>
<path d="M75 20.15L77.347 14.45M88.3 20.15L85.953 14.45M85.953 14.45L84.975 12.075L81.65 4L78.325 12.075L77.347 14.45M85.953 14.45H77.3465M86.4 4.95H94M88.3 9.7H94M90.2 14.45H94M92.1 19.2H94" stroke="black" stroke-width="2" stroke-linecap="round" stroke-linejoin="round"/>
</svg>
