<svg width="500" height="500" viewBox="0 0 500 500" fill="none" xmlns="http://www.w3.org/2000/svg">
<path d="M25.2222 10L28.9999 13.7778L25.2222 17.5556" stroke="black" stroke-width="2" stroke-linecap="round" stroke-linejoin="round"/>
<path d="M12 19.4443V17.5554C12 16.5534 12.398 15.5925 13.1065 14.8841C13.815 14.1756 14.7758 13.7776 15.7778 13.7776H29" stroke="black" stroke-width="2" stroke-linecap="round" stroke-linejoin="round"/>
<path d="M15.7778 30.778L12 27.0002L15.7778 23.2224" stroke="black" stroke-width="2" stroke-linecap="round" stroke-linejoin="round"/>
<path d="M29 21.3333V23.2221C29 24.2241 28.602 25.185 27.8935 25.8934C27.185 26.6019 26.2242 26.9999 25.2222 26.9999H12" stroke="black" stroke-width="2" stroke-linecap="round" stroke-linejoin="round"/>
<path d="M67 29L57 21L67 13L67 29Z" fill="black" stroke="black" stroke-width="2" stroke-linecap="round" stroke-linejoin="round"/>
<path d="M53 28L53 14" stroke="black" stroke-width="2" stroke-linecap="round" stroke-linejoin="round"/>
<path d="M94 13L104 21L94 29V13Z" fill="black" stroke="black" stroke-width="2" stroke-linecap="round" stroke-linejoin="round"/>
<path d="M108 14V28" stroke="black" stroke-width="2" stroke-linecap="round" stroke-linejoin="round"/>
<path d="M131 28.15L133.347 22.45M144.3 28.15L141.953 22.45M141.953 22.45L140.975 20.075L137.65 12L134.325 20.075L133.347 22.45M141.953 22.45H133.346M142.4 12.95H150M144.3 17.7H150M146.2 22.45H150M148.1 27.2H150" stroke="black" stroke-width="2" stroke-linecap="round" stroke-linejoin="round"/>
<path d="M185.222 10L189 13.7778L185.222 17.5556" stroke="black" stroke-width="2" stroke-linecap="round" stroke-linejoin="round"/>
<path d="M172 19.4443V17.5554C172 16.5534 172.398 15.5925 173.106 14.8841C173.815 14.1756 174.776 13.7776 175.778 13.7776H189" stroke="black" stroke-width="2" stroke-linecap="round" stroke-linejoin="round"/>
<path d="M175.778 30.778L172 27.0002L175.778 23.2224" stroke="black" stroke-width="2" stroke-linecap="round" stroke-linejoin="round"/>
<path d="M189 21.3333V23.2221C189 24.2241 188.602 25.185 187.894 25.8934C187.185 26.6019 186.224 26.9999 185.222 26.9999H172" stroke="black" stroke-width="2" stroke-linecap="round" stroke-linejoin="round"/>
<path d="M182.05 16.1389H178.8V17.7189H180.24V24.2889H182.05V16.1389Z" fill="black"/>
<path d="M215 14L229 21.5L215 29V14Z" fill="white" stroke="white" stroke-width="2" stroke-linecap="round" stroke-linejoin="round"/>
<path d="M258 12V29" stroke="white" stroke-width="3" stroke-linecap="round" stroke-linejoin="round"/>
<path d="M263 12V29" stroke="white" stroke-width="3" stroke-linecap="round" stroke-linejoin="round"/>
<path d="M306 27.9999L309 24.9999L306 21.9999" stroke="black" stroke-width="2" stroke-linecap="round" stroke-linejoin="round"/>
<path d="M306 12L309 15L306 18" stroke="black" stroke-width="2" stroke-linecap="round" stroke-linejoin="round"/>
<path d="M309 15H305C303.874 15 302.836 15.3719 302 15.9996M291 25H295C296.126 25 297.164 24.6281 298 24.0004" stroke="black" stroke-width="2" stroke-linecap="round" stroke-linejoin="round"/>
<path d="M291 15H295C297.761 15 300 17.2386 300 20C300 22.7614 302.239 25 305 25H309" stroke="black" stroke-width="2" stroke-linecap="round" stroke-linejoin="round"/>
</svg>
